#!OML:ASF F:\VICON\USERDATA\INSTALL\rory3\rory3.ASF
:FULLY-SPECIFIED
:DEGREES
913
root -2.14074 17.076 0.164899 35.0172 3.22465 364.836
lowerback -9.40518 -6.28371 -0.937998
upperback -20.4177 -9.31593 -3.34519
thorax -18.8136 -4.9014 -2.71057
lowerneck -5.09677 6.41634 -2.68377
upperneck 2.52465 8.3515 13.5284
head 0.883358 4.44091 4.63257
rclavicle -7.63333e-014 -8.90555e-014
rhumerus -18.1455 -10.9959 4.30533
rradius 16.0361
rwrist 16.735
rhand 18.3163 3.1575
rfingers 7.12502
rthumb 42.9635 -21.1013
lclavicle -7.63333e-014 -8.90555e-014
lhumerus 66.6884 6.79462 13.5073
lradius 33.1498
lwrist -13.3887
lhand 15.326 21.4435
lfingers 7.12502
lthumb 40.1585 46.6216
rfemur -55.109 8.06993 15.426
rtibia 25.4053
rfoot -51.7512 -41.3171
rtoes 42.6838
lfemur 1.40126 -0.14419 -19.0713
ltibia -6.36111e-014
lfoot -46.6251 31.0645
ltoes 50.8615
914
root -2.13025 17.0753 0.165491 35.0472 3.22188 364.871
lowerback -9.62467 -6.28345 -0.804366
upperback -20.236 -9.30055 -3.44832
thorax -18.4569 -4.93368 -2.93563
lowerneck -5.33871 6.15734 -2.51133
upperneck 2.80438 7.95492 13.5599
head 1.04501 4.26388 4.63031
rclavicle 4.09496e-014 4.6118e-014
rhumerus -18.2193 -12.6705 4.17942
rradius 15.9818
rwrist 18.063
rhand 17.3037 3.56964
rfingers 7.12502
rthumb 42.0155 -21.0152
lclavicle 4.09496e-014 4.6118e-014
lhumerus 66.3398 7.36163 13.7478
lradius 33.8838
lwrist -14.1802
lhand 14.7606 20.7879
lfingers 7.12502
lthumb 39.6263 46.1256
rfemur -55.1301 7.99965 15.3705
rtibia 25.4162
rfoot -51.9091 -41.2753
rtoes 42.6209
lfemur 1.38589 -0.136047 -19.1694
ltibia -1.59028e-014
lfoot -47.2719 32.3845
ltoes 49.6244
915
root -2.12392 17.0757 0.166421 35.0797 3.24334 364.859
lowerback -9.76431 -6.30096 -0.705892
upperback -20.1599 -9.31481 -3.47552
thorax -18.2843 -4.96299 -3.03778
lowerneck -5.0977 5.99541 -2.54737
upperneck 2.71568 7.74317 13.8722
head 0.98338 4.15265 4.71763
rclavicle 4.96962e-014 7.95139e-014
rhumerus -18.2609 -13.9782 4.02791
rradius 15.97
rwrist 19.1799
rhand 16.1439 3.52943
rfingers 7.12502
rthumb 40.9273 -21.41
lclavicle 4.96962e-014 7.95139e-014
lhumerus 65.6525 7.57126 13.5937
lradius 34.6562
lwrist -14.3478
lhand 13.4372 20.5003
lfingers 7.12502
lthumb 38.3786 46.1955
rfemur -55.1668 7.95482 15.3772
rtibia 25.4478
rfoot -51.8612 -41.3931
rtoes 42.3805
lfemur 1.35364 -0.11764 -19.1958
ltibia -3.18055e-014
lfoot -47.5449 32.9353
ltoes 48.8593
916
root -2.12333 17.0766 0.162175 35.0707 3.17361 364.944
lowerback -9.71569 -6.36931 -0.810701
upperback -20.1033 -9.40919 -3.47047
thorax -18.2202 -4.99086 -2.96692
lowerneck -4.95667 5.87458 -2.57727
upperneck 2.553 7.59279 14.2046
head 0.911547 4.07234 4.81312
rclavicle -3.77691e-014 -8.42847e-014
rhumerus -18.2448 -15.5631 3.7759
rradius 15.9331
rwrist 20.3336
rhand 14.7556 3.03338
rfingers 7.12502
rthumb 39.6216 -22.3057
lclavicle -3.77691e-014 -8.42847e-014
lhumerus 64.9441 7.8553 14.1724
lradius 35.4299
lwrist -14.4777
lhand 12.1249 20.4785
lfingers 7.12502
lthumb 37.1388 46.5069
rfemur -55.1759 7.94335 15.2699
rtibia 25.4421
rfoot -51.7777 -41.4979
rtoes 42.2435
lfemur 1.32566 -0.073135 -19.3233
ltibia 4.13472e-014
lfoot -46.9841 33.9767
ltoes 48.4406
917
root -2.11647 17.0787 0.156833 35.1093 3.10226 364.999
lowerback -9.6662 -6.39102 -0.765172
upperback -20.0742 -9.4484 -3.50528
thorax -18.2324 -5.02244 -3.02292
lowerneck -5.03487 5.72849 -2.4616
upperneck 2.61424 7.37244 14.4237
head 0.958376 3.97297 4.86464
rclavicle -2.8625e-014 -4.13472e-014
rhumerus -18.4769 -21.4936 4.47482
rradius 15.3764
rwrist 25.6848
rhand 13.5491 3.78361
rfingers 7.12502
rthumb 38.4842 -21.8822
lclavicle -2.8625e-014 -4.13472e-014
lhumerus 64.3151 8.22015 15.1277
lradius 36.2024
lwrist -14.8362
lhand 11.1916 20.2675
lfingers 7.12502
lthumb 36.2557 46.5208
rfemur -55.2027 7.9139 15.1611
rtibia 25.3753
rfoot -51.4043 -41.6772
rtoes 42.176
lfemur 1.25923 -0.014006 -19.4515
ltibia -1.27222e-014
lfoot -46.4904 34.538
ltoes 48.4897
918
root -2.10771 17.0827 0.150984 35.2378 3.0872 364.977
lowerback -9.72956 -6.34612 -0.579987
upperback -20.0476 -9.38857 -3.54889
thorax -18.1962 -5.03108 -3.18316
lowerneck -5.07891 5.45864 -2.3947
upperneck 2.61586 6.99625 14.5692
head 0.997021 3.79038 4.89812
rclavicle -2.10712e-014 -4.77083e-014
rhumerus -18.7725 -17.9901 3.28714
rradius 16.0935
rwrist 21.3685
rhand 12.1702 3.60802
rfingers 7.12502
rthumb 37.1817 -22.4093
lclavicle -2.10712e-014 -4.77083e-014
lhumerus 63.5691 8.43617 15.6995
lradius 36.9902
lwrist -15.0764
lhand 10.377 19.4197
lfingers 7.12502
lthumb 35.4838 45.8614
rfemur -55.3312 7.87619 15.1381
rtibia 25.3043
rfoot -51.0115 -41.9077
rtoes 42.0597
lfemur 1.09832 0.0441939 -19.4874
ltibia -1.59028e-014
lfoot -46.1993 34.0119
ltoes 49.2925
919
root -2.10299 17.0864 0.149043 35.2865 3.18593 364.845
lowerback -9.80706 -6.28184 -0.362328
upperback -20.0009 -9.28503 -3.50958
thorax -18.0995 -5.01064 -3.27178
lowerneck -5.1849 5.09749 -2.63479
upperneck 2.76041 6.49755 14.828
head 1.08475 3.55453 5.02001
rclavicle -1.24837e-013 -1.1291e-013
rhumerus -19.1723 -16.0455 2.55501
rradius 16.6279
rwrist 18.6732
rhand 10.6398 3.35246
rfingers 7.12502
rthumb 35.7329 -23.0292
lclavicle -1.24837e-013 -1.1291e-013
lhumerus 62.8014 8.57603 16.5994
lradius 37.5864
lwrist -15.727
lhand 9.05696 18.2445
lfingers 7.12502
lthumb 34.2314 44.9766
rfemur -55.3675 7.84908 15.2956
rtibia 25.2732
rfoot -50.8611 -41.9509
rtoes 42.0074
lfemur 1.00512 0.0775086 -19.3292
ltibia -1.27222e-014
lfoot -45.5052 32.7492
ltoes 50.6685
920
root -2.09988 17.0871 0.156523 35.1979 3.27805 364.805
lowerback -9.80405 -6.21643 -0.251427
upperback -19.9413 -9.18468 -3.50101
thorax -18.0225 -4.97589 -3.33062
lowerneck -5.62808 4.67074 -3.02776
upperneck 3.56737 5.83492 15.2011
head 1.43209 3.27889 5.22503
rclavicle 2.34566e-014 4.77083e-015
rhumerus -19.7064 -14.305 1.90229
rradius 17.2051
rwrist 16.3029
rhand 9.02838 3.46901
rfingers 7.12502
rthumb 34.2042 -23.2692
lclavicle 2.34566e-014 4.77083e-015
lhumerus 61.9552 8.57277 17.5554
lradius 38.1342
lwrist -16.3775
lhand 6.12884 17.5893
lfingers 7.12502
lthumb 31.4461 44.9048
rfemur -55.2216 7.80257 15.4066
rtibia 25.2693
rfoot -51.0918 -41.7055
rtoes 42.316
lfemur 1.09911 0.0599977 -19.2358
ltibia 1.27222e-014
lfoot -45.7953 35.1244
ltoes 48.8157
921
root -2.09769 17.0841 0.162723 35.0912 3.25321 364.943
lowerback -9.66463 -6.18998 -0.393788
upperback -19.8866 -9.14653 -3.50122
thorax -17.9986 -4.92963 -3.24528
lowerneck -6.06517 4.18339 -3.35924
upperneck 4.24725 5.1069 15.3718
head 1.76006 2.96068 5.35103
rclavicle -2.06736e-014 -3.33958e-014
rhumerus -20.3326 -12.185 1.13589
rradius 17.9399
rwrist 13.3866
rhand 7.43783 3.94782
rfingers 7.12502
rthumb 32.6923 -23.1168
lclavicle -2.06736e-014 -3.33958e-014
lhumerus 60.9853 8.51863 18.2788
lradius 38.5081
lwrist -16.5533
lhand 2.2664 17.276
lfingers 7.12502
lthumb 27.7593 45.2463
rfemur -55.0819 7.73023 15.2968
rtibia 25.2786
rfoot -51.2243 -41.4507
rtoes 42.7435
lfemur 1.27039 0.0292517 -19.3726
ltibia -9.54166e-015
lfoot -46.4372 34.9102
ltoes 48.3666
922
root -2.09457 17.0823 0.164259 35.0844 3.29736 364.981
lowerback -9.5984 -6.17325 -0.377076
upperback -19.7404 -9.10873 -3.47138
thorax -17.8191 -4.90572 -3.22225
lowerneck -6.49102 3.64901 -3.5473
upperneck 4.36483 4.37959 15.3267
head 1.93422 2.61503 5.36985
rclavicle -5.1684e-015 9.54166e-015
rhumerus -21.0618 -10.0029 0.101338
rradius 18.906
rwrist 10.1961
rhand 5.63725 4.14561
rfingers 7.12502
rthumb 30.9776 -23.2601
lclavicle -5.1684e-015 9.54166e-015
lhumerus 60.105 8.67842 19.0275
lradius 38.7565
lwrist -16.4862
lhand -1.24698 16.6874
lfingers 7.12502
lthumb 24.3955 45.1544
rfemur -55.0835 7.65819 15.2966
rtibia 25.3025
rfoot -51.1649 -41.4354
rtoes 42.9436
lfemur 1.29159 0.0045885 -19.3863
ltibia -1.27222e-014
lfoot -46.3927 34.7846
ltoes 48.291
923
root -2.08493 17.0865 0.162186 35.0984 3.48159 364.995
lowerback -9.49332 -6.18113 -0.183232
upperback -19.6385 -9.11016 -3.42153
thorax -17.7635 -4.92741 -3.26025
lowerneck -6.67079 3.11702 -3.68864
upperneck 4.44611 3.66087 15.2372
head 2.05823 2.26201 5.35589
rclavicle 9.78021e-014 1.11319e-013
rhumerus -21.8009 -7.68567 -1.14959
rradius 19.9862
rwrist 6.9355
rhand 3.70749 4.43841
rfingers 7.12502
rthumb 29.1364 -23.3018
lclavicle 9.78021e-014 1.11319e-013
lhumerus 58.9499 8.6987 19.6054
lradius 39.1652
lwrist -16.4219
lhand -4.33609 15.8893
lfingers 7.12502
lthumb 21.4312 44.7239
rfemur -55.0654 7.4608 15.3787
rtibia 25.3025
rfoot -51.1144 -41.4126
rtoes 43.1033
lfemur 1.23208 -0.120094 -19.3267
ltibia 6.36111e-015
lfoot -45.939 35.5183
ltoes 48.2158
924
root -2.0756 17.0908 0.160842 35.038 3.72417 364.908
lowerback -9.37741 -6.15778 0.120458
upperback -19.5562 -9.06928 -3.3702
thorax -17.7603 -4.94529 -3.35569
lowerneck -6.85987 2.57883 -3.87996
upperneck 4.74397 2.90518 15.3104
head 2.24831 1.90388 5.40118
rclavicle 3.37934e-014 5.56597e-014
rhumerus -22.6506 -6.36426 -2.2004
rradius 20.8576
rwrist 4.66861
rhand 1.362 4.93635
rfingers 7.12502
rthumb 26.8943 -23.1704
lclavicle 3.37934e-014 5.56597e-014
lhumerus 57.5585 8.49342 19.9009
lradius 39.6396
lwrist -16.2126
lhand -7.55539 15.1495
lfingers 7.12502
lthumb 18.3366 44.3052
rfemur -54.9062 7.29476 15.5898
rtibia 25.2203
rfoot -51.0813 -41.3587
rtoes 43.0848
lfemur 1.27637 -0.234723 -19.129
ltibia -1.27222e-014
lfoot -46.1835 35.108
ltoes 48.4404
925
root -2.06937 17.0905 0.159689 35.0536 3.8259 364.846
lowerback -9.39316 -6.10079 0.31726
upperback -19.4656 -8.97873 -3.3523
thorax -17.6434 -4.92783 -3.45259
lowerneck -7.25603 2.07308 -4.21677
upperneck 5.2769 2.16516 15.6307
head 2.5388 1.57686 5.55417
rclavicle -7.15625e-015 -7.95139e-015
rhumerus -23.4819 -6.97917 -2.7975
rradius 21.2622
rwrist 4.19931
rhand -0.81055 6.22006
rfingers 7.12502
rthumb 24.8138 -22.19
lclavicle -7.15625e-015 -7.95139e-015
lhumerus 56.1376 8.23899 20.0105
lradius 40.1948
lwrist -15.7776
lhand -10.8012 14.5264
lfingers 7.12502
lthumb 15.212 43.9472
rfemur -54.8418 7.22631 15.6908
rtibia 25.1096
rfoot -51.1875 -41.1536
rtoes 43.1937
lfemur 1.25756 -0.247801 -19.0256
ltibia 4.77083e-014
lfoot -46.3387 34.0141
ltoes 49.2354
